<mxfile host="drawio-plugin" modified="2023-01-31T00:12:37.820Z" agent="5.0 (Windows NT 6.2; Win64; x64) AppleWebKit/537.36 (KHTML, like Gecko) Chrome/104.0.5112.102 Safari/537.36" etag="w6TRA2TC_vlVSp18Rrxx" version="20.5.3" type="embed"><diagram id="hqoDyM9kvobbUqlxVi1t" name="Page-1"><mxGraphModel dx="1642" dy="582" grid="1" gridSize="10" guides="1" tooltips="1" connect="1" arrows="1" fold="1" page="1" pageScale="1" pageWidth="850" pageHeight="1100" math="0" shadow="0"><root><mxCell id="0"/><mxCell id="1" parent="0"/><mxCell id="9" value="&lt;h1&gt;claster&lt;/h1&gt;" style="rounded=0;whiteSpace=wrap;html=1;fillColor=#ffe6cc;strokeColor=#d79b00;align=center;verticalAlign=top;" vertex="1" parent="1"><mxGeometry x="162.5" y="30" width="467.5" height="620" as="geometry"/></mxCell><mxCell id="2" value="producer" style="rounded=1;whiteSpace=wrap;html=1;" parent="1" vertex="1"><mxGeometry x="-10" y="120" width="120" height="60" as="geometry"/></mxCell><mxCell id="4" value="cunsumer group" style="rounded=1;whiteSpace=wrap;html=1;" parent="1" vertex="1"><mxGeometry x="670" y="110" width="120" height="60" as="geometry"/></mxCell><mxCell id="7" value="borker" style="rounded=0;whiteSpace=wrap;html=1;align=center;verticalAlign=top;" vertex="1" parent="1"><mxGeometry x="208.75" y="550" width="271.25" height="60" as="geometry"/></mxCell><mxCell id="21" value="" style="group;" vertex="1" connectable="0" parent="1"><mxGeometry x="208.75" y="90" width="345" height="420" as="geometry"/></mxCell><mxCell id="6" value="&lt;font style=&quot;font-size: 21px;&quot;&gt;borker&lt;/font&gt;" style="rounded=0;whiteSpace=wrap;html=1;align=center;verticalAlign=top;" parent="21" vertex="1"><mxGeometry width="345" height="420" as="geometry"/></mxCell><mxCell id="16" value="" style="group;" vertex="1" connectable="0" parent="21"><mxGeometry x="35" y="40" width="270" height="180" as="geometry"/></mxCell><mxCell id="13" value="topic" style="rounded=0;whiteSpace=wrap;html=1;verticalAlign=top;fontSize=20;align=left;movable=1;resizable=1;rotatable=1;deletable=1;editable=1;connectable=1;" vertex="1" parent="16"><mxGeometry width="270" height="180" as="geometry"/></mxCell><mxCell id="14" value="partition leader" style="rounded=1;whiteSpace=wrap;html=1;fontSize=20;movable=0;resizable=0;rotatable=0;deletable=0;editable=0;connectable=0;" vertex="1" parent="16"><mxGeometry x="20" y="40" width="230" height="60" as="geometry"/></mxCell><mxCell id="15" value="partition folloer" style="rounded=1;whiteSpace=wrap;html=1;fontSize=20;movable=0;resizable=0;rotatable=0;deletable=0;editable=0;connectable=0;" vertex="1" parent="16"><mxGeometry x="20" y="110" width="230" height="60" as="geometry"/></mxCell><mxCell id="17" value="" style="group;" vertex="1" connectable="0" parent="21"><mxGeometry x="35" y="230" width="270" height="180" as="geometry"/></mxCell><mxCell id="18" value="topic" style="rounded=0;whiteSpace=wrap;html=1;verticalAlign=top;fontSize=20;align=left;movable=1;resizable=1;rotatable=1;deletable=1;editable=1;connectable=1;" vertex="1" parent="17"><mxGeometry width="270" height="180" as="geometry"/></mxCell><mxCell id="19" value="partition leader" style="rounded=1;whiteSpace=wrap;html=1;fontSize=20;movable=0;resizable=0;rotatable=0;deletable=0;editable=0;connectable=0;" vertex="1" parent="17"><mxGeometry x="20" y="40" width="230" height="60" as="geometry"/></mxCell><mxCell id="20" value="partition folloer" style="rounded=1;whiteSpace=wrap;html=1;fontSize=20;movable=0;resizable=0;rotatable=0;deletable=0;editable=0;connectable=0;" vertex="1" parent="17"><mxGeometry x="20" y="110" width="230" height="60" as="geometry"/></mxCell></root></mxGraphModel></diagram></mxfile>